# xmcd CD database file
#
# Track frame offsets:
#	150
#	11082
#	22967
#	36960
#	51392
#	70262
#	82547
#	95625
#	106970
#	121007
#	137535
#	148152
#	161860
#	174290
#	183965
#	194840
#	212167
#	228050
#	239520
#	250890
#	265572
#
# Disc length: 3714 seconds
#
# Revision: 1
# Processed by: cddbd v1.5.2PL0 Copyright (c) Steve Scherf et al.
# Submitted via: jetAudio 7
#
DISCID=1e0e8015
DTITLE=Various Artist - Country Moods And Memories Disc 2
DYEAR=1900
DGENRE=Country
TTITLE0=The Most Beautiful Girl
TTITLE1=The Twelfth Of Never
TTITLE2=Send Me The Pillow (That You Dream On)
TTITLE3=Have I Told You Lately That I Love You
TTITLE4=Until It's Time For You To Go
TTITLE5=Help Me Make It Through The Night
TTITLE6=What The World Needs Now Is Love
TTITLE7=My Happiness
TTITLE8=Both Sides Now
TTITLE9=Sometimes When We Touch
TTITLE10=Unchained Melody
TTITLE11=Theme From ''Love Story'' (Where Do I Begin)
TTITLE12=Elusive Butterfly
TTITLE13=I Remember You
TTITLE14=Never Ending Song Of Love
TTITLE15=For The Good Times
TTITLE16=Let It Be Me
TTITLE17=Honey
TTITLE18=True Love
TTITLE19=You're The Only One
TTITLE20=Spanish Eyes
EXTD=
EXTT0=
EXTT1=
EXTT2=
EXTT3=
EXTT4=
EXTT5=
EXTT6=
EXTT7=
EXTT8=
EXTT9=
EXTT10=
EXTT11=
EXTT12=
EXTT13=
EXTT14=
EXTT15=
EXTT16=
EXTT17=
EXTT18=
EXTT19=
EXTT20=
PLAYORDER=
